<?xml version="1.0" standalone="no"?>
<svg xmlns="http://www.w3.org/2000/svg" viewBox="0 0 139.921 29" width="139.921" height="29"><g fill="#a16aff" color="#a16aff" transform="translate(0, 0) scale(0.5576924)"><svg width="52.0" height="52.0" x="0.0" y="0.0" viewBox="0 0 52 52"><path fill="currentColor" fill-rule="evenodd" d="M48.231 30.94l-.26 1.04c0 .173-.087.173-.087.173v-.173c.867-7.973-10.4-12.566-22.966-12.566-2.514 0-5.2.173-7.714.606-3.986.607-7.02 1.56-9.186 2.6.26 2.774 2.773 3.12 4.333 3.12h.52c2.253-.086 5.027-.52 6.413-.693.174 0 .434-.087.52-.087 1.56-.173 3.207-.346 4.767-.346 7.02 0 14.04 1.905 17.767 6.153 3.639 4.16 2.426 9.013-2.514 13.26-4.506 3.813-10.314 4.592-13.347 4.767h-.693c-3.293 0-6.153-.954-6.673-1.214-4.853-1.906-4.16-5.113-1.473-6.846 2.166-1.387 4.853-1.994 7.366-1.994 4.506 0 8.494 1.907 8.06 4.42-.26 1.734-2.34 2.687-3.987 2.687-.433 0-.867-.087-1.213-.261l-.087-.086c-.086-.173-.173-.26-.606-.433a5.446 5.446 0 0 0-1.647-.26c-1.56 0-3.206.607-3.64 1.473-.26.606.26 1.04.954 1.3.78.26 1.646.347 2.426.347.954 0 1.734-.087 2.167-.174 5.027-.867 9.446-3.206 11.267-5.286 1.473-1.733 1.126-4.16-2.947-6.067-3.467-1.733-7.887-2.08-11.18-2.08-2.167 0-3.813.174-4.42.26-.433.087-3.207.434-6.24.434h-.693c-1.04 0-1.994-.087-3.034-.261-2.773-.346-5.98-2.686-6.933-6.067a12.367 12.367 0 0 1-.173-.952v-.52c-.087-2.774-.26-6.674 1.646-9.36 3.814-5.287 11.614-7.627 19.587-7.627 11.093 0 22.62 4.68 24.18 12.827.086 0 .693 3.726-.26 7.886M23.791 3.207a22.726 22.726 0 0 1 20.02 8.493c-5.113-3.033-11.613-4.853-18.633-4.68-6.327.087-12.134 1.734-16.987 4.42 3.813-4.506 9.273-7.626 15.6-8.233m28.08 20.28c-.52-5.027-2.427-9.793-5.633-13.78A25.978 25.978 0 0 0 25.958 0c-.867 0-1.647 0-2.514.087-6.846.693-13.086 3.987-17.506 9.36C1.518 14.82-.562 21.58.13 28.427 1.344 41.947 12.698 52 25.958 52c.866 0 1.646 0 2.513-.086 6.933-.695 13.173-3.987 17.593-9.361a26.535 26.535 0 0 0 5.807-19.066"></path></svg></g><line x1="41" y1="1" x2="41" y2="28" stroke="#5e00ff" stroke-linecap="round"></line><path fill="#5e00ff" fill-rule="nonzero" d="M4.99 19.85L4.99 19.85Q3.17 19.85 2.08 19.07Q0.98 18.29 0.49 16.80Q0 15.31 0 13.22L0 13.22L0 6.72Q0 4.58 0.44 3.08Q0.89 1.58 2.03 0.79Q3.17 0 5.21 0L5.21 0Q7.03 0 8.15 0.61Q9.26 1.22 9.77 2.48Q10.27 3.74 10.27 5.66L10.27 5.66L10.27 6.38L7.73 6.38L7.73 5.78Q7.73 4.51 7.56 3.71Q7.39 2.90 6.88 2.51Q6.36 2.11 5.26 2.11L5.26 2.11Q4.06 2.11 3.52 2.66Q2.98 3.22 2.84 4.16Q2.71 5.11 2.71 6.31L2.71 6.31L2.71 13.51Q2.71 14.90 2.92 15.84Q3.12 16.78 3.70 17.23Q4.27 17.69 5.33 17.69L5.33 17.69Q6.38 17.69 6.96 17.18Q7.54 16.68 7.75 15.70Q7.97 14.71 7.97 13.25L7.97 13.25L7.97 11.90L5.50 11.90L5.50 9.98L10.42 9.98L10.42 19.61L8.71 19.61L8.45 17.38Q8.06 18.46 7.25 19.15Q6.43 19.85 4.99 19.85ZM15.62 19.61L13.06 19.61L13.06 5.74L15.62 5.74L15.62 7.70Q16.39 6.43 17.16 6Q17.93 5.57 18.70 5.57L18.70 5.57Q18.79 5.57 18.88 5.57Q18.96 5.57 19.10 5.59L19.10 5.59L19.10 8.42Q18.82 8.30 18.44 8.22Q18.07 8.14 17.69 8.14L17.69 8.14Q17.09 8.14 16.60 8.41Q16.10 8.69 15.62 9.48L15.62 9.48L15.62 19.61ZM23.18 19.80L23.18 19.80Q22.37 19.80 21.74 19.33Q21.12 18.86 20.76 18.13Q20.40 17.40 20.40 16.58L20.40 16.58Q20.40 15.29 20.83 14.40Q21.26 13.51 22.02 12.90Q22.78 12.29 23.77 11.83Q24.77 11.38 25.87 10.94L25.87 10.94L25.87 9.96Q25.87 9.12 25.78 8.57Q25.68 8.02 25.38 7.74Q25.08 7.46 24.48 7.46L24.48 7.46Q23.95 7.46 23.63 7.70Q23.30 7.94 23.16 8.39Q23.02 8.83 23.02 9.43L23.02 9.43L23.02 10.13L20.47 10.03Q20.52 7.73 21.53 6.64Q22.54 5.54 24.65 5.54L24.65 5.54Q26.71 5.54 27.58 6.67Q28.44 7.80 28.44 9.94L28.44 9.94L28.44 16.27Q28.44 16.92 28.48 17.52Q28.51 18.12 28.57 18.64Q28.63 19.15 28.68 19.61L28.68 19.61L26.33 19.61Q26.26 19.22 26.15 18.64Q26.04 18.05 25.99 17.57L25.99 17.57Q25.75 18.38 25.07 19.09Q24.38 19.80 23.18 19.80ZM24.19 17.59L24.19 17.59Q24.58 17.59 24.91 17.38Q25.25 17.16 25.51 16.88Q25.78 16.61 25.87 16.44L25.87 16.44L25.87 12.50Q25.27 12.84 24.74 13.18Q24.22 13.51 23.82 13.88Q23.42 14.26 23.20 14.72Q22.97 15.19 22.97 15.79L22.97 15.79Q22.97 16.63 23.28 17.11Q23.59 17.59 24.19 17.59ZM33.48 19.61L30.91 19.61L30.91 5.74L33.48 5.74L33.48 7.10Q34.18 6.46 35.02 6Q35.86 5.54 36.86 5.54L36.86 5.54Q37.70 5.54 38.15 5.98Q38.59 6.41 38.77 7.06Q38.95 7.70 38.95 8.38L38.95 8.38L38.95 19.61L36.38 19.61L36.38 9.12Q36.38 8.38 36.17 7.97Q35.95 7.56 35.28 7.56L35.28 7.56Q34.85 7.56 34.38 7.81Q33.91 8.06 33.48 8.42L33.48 8.42L33.48 19.61ZM46.85 19.61L41.66 19.61L41.66 0.17L46.13 0.17Q47.45 0.17 48.42 0.46Q49.39 0.74 50.04 1.34Q50.69 1.94 51 2.87Q51.31 3.79 51.31 5.04L51.31 5.04Q51.31 6.24 51.01 7.12Q50.71 7.99 50.10 8.50Q49.49 9 48.53 9.14L48.53 9.14Q49.70 9.41 50.42 10.04Q51.14 10.68 51.49 11.68Q51.84 12.67 51.84 14.06L51.84 14.06Q51.84 15.31 51.55 16.34Q51.26 17.38 50.65 18.10Q50.04 18.82 49.09 19.21Q48.14 19.61 46.85 19.61L46.85 19.61ZM44.38 10.34L44.38 17.66L46.20 17.66Q48.02 17.66 48.64 16.81Q49.25 15.96 49.25 14.06L49.25 14.06Q49.25 12.84 48.92 12.01Q48.60 11.18 47.89 10.76Q47.18 10.34 45.98 10.34L45.98 10.34L44.38 10.34ZM44.38 2.18L44.38 8.28L45.98 8.28Q47.14 8.28 47.78 7.96Q48.43 7.63 48.70 6.91Q48.96 6.19 48.96 5.04L48.96 5.04Q48.96 3.70 48.55 3.10Q48.14 2.50 47.28 2.34Q46.42 2.18 45.02 2.18L45.02 2.18L44.38 2.18ZM56.52 19.80L56.52 19.80Q55.70 19.80 55.08 19.33Q54.46 18.86 54.10 18.13Q53.74 17.40 53.74 16.58L53.74 16.58Q53.74 15.29 54.17 14.40Q54.60 13.51 55.36 12.90Q56.11 12.29 57.11 11.83Q58.10 11.38 59.21 10.94L59.21 10.94L59.21 9.96Q59.21 9.12 59.11 8.57Q59.02 8.02 58.72 7.74Q58.42 7.46 57.82 7.46L57.82 7.46Q57.29 7.46 56.96 7.70Q56.64 7.94 56.50 8.39Q56.35 8.83 56.35 9.43L56.35 9.43L56.35 10.13L53.81 10.03Q53.86 7.73 54.86 6.64Q55.87 5.54 57.98 5.54L57.98 5.54Q60.05 5.54 60.91 6.67Q61.78 7.80 61.78 9.94L61.78 9.94L61.78 16.27Q61.78 16.92 61.81 17.52Q61.85 18.12 61.91 18.64Q61.97 19.15 62.02 19.61L62.02 19.61L59.66 19.61Q59.59 19.22 59.48 18.64Q59.38 18.05 59.33 17.57L59.33 17.57Q59.09 18.38 58.40 19.09Q57.72 19.80 56.52 19.80ZM57.53 17.59L57.53 17.59Q57.91 17.59 58.25 17.38Q58.58 17.16 58.85 16.88Q59.11 16.61 59.21 16.44L59.21 16.44L59.21 12.50Q58.61 12.84 58.08 13.18Q57.55 13.51 57.16 13.88Q56.76 14.26 56.53 14.72Q56.30 15.19 56.30 15.79L56.30 15.79Q56.30 16.63 56.62 17.11Q56.93 17.59 57.53 17.59ZM70.63 19.61L63.72 19.61L63.72 17.88L67.97 7.66L64.15 7.66L64.15 5.74L70.73 5.74L70.73 7.13L66.46 17.66L70.63 17.66L70.63 19.61ZM75.07 19.80L75.07 19.80Q74.26 19.80 73.63 19.33Q73.01 18.86 72.65 18.13Q72.29 17.40 72.29 16.58L72.29 16.58Q72.29 15.29 72.72 14.40Q73.15 13.51 73.91 12.90Q74.66 12.29 75.66 11.83Q76.66 11.38 77.76 10.94L77.76 10.94L77.76 9.96Q77.76 9.12 77.66 8.57Q77.57 8.02 77.27 7.74Q76.97 7.46 76.37 7.46L76.37 7.46Q75.84 7.46 75.52 7.70Q75.19 7.94 75.05 8.39Q74.90 8.83 74.90 9.43L74.90 9.43L74.90 10.13L72.36 10.03Q72.41 7.73 73.42 6.64Q74.42 5.54 76.54 5.54L76.54 5.54Q78.60 5.54 79.46 6.67Q80.33 7.80 80.33 9.94L80.33 9.94L80.33 16.27Q80.33 16.92 80.36 17.52Q80.40 18.12 80.46 18.64Q80.52 19.15 80.57 19.61L80.57 19.61L78.22 19.61Q78.14 19.22 78.04 18.64Q77.93 18.05 77.88 17.57L77.88 17.57Q77.64 18.38 76.96 19.09Q76.27 19.80 75.07 19.80ZM76.08 17.59L76.08 17.59Q76.46 17.59 76.80 17.38Q77.14 17.16 77.40 16.88Q77.66 16.61 77.76 16.44L77.76 16.44L77.76 12.50Q77.16 12.84 76.63 13.18Q76.10 13.51 75.71 13.88Q75.31 14.26 75.08 14.72Q74.86 15.19 74.86 15.79L74.86 15.79Q74.86 16.63 75.17 17.11Q75.48 17.59 76.08 17.59ZM85.44 19.61L82.87 19.61L82.87 5.74L85.44 5.74L85.44 7.70Q86.21 6.43 86.98 6Q87.74 5.57 88.51 5.57L88.51 5.57Q88.61 5.57 88.69 5.57Q88.78 5.57 88.92 5.59L88.92 5.59L88.92 8.42Q88.63 8.30 88.26 8.22Q87.89 8.14 87.50 8.14L87.50 8.14Q86.90 8.14 86.41 8.41Q85.92 8.69 85.44 9.48L85.44 9.48L85.44 19.61Z" transform="translate(51, 4.577)"></path></svg>